<mxfile host="app.diagrams.net" modified="2023-08-26T19:11:44.374Z" agent="Mozilla/5.0 (Windows NT 10.0; Win64; x64) AppleWebKit/537.36 (KHTML, like Gecko) Chrome/116.0.0.0 Safari/537.36" version="21.6.9" etag="6VYbKbQC86m3u49iAST2" type="github">
  <diagram name="Страница — 1" id="5Y43pAPgW5mIe6aCZNJx">
    <mxGraphModel>
      <root>
        <mxCell id="0" />
        <mxCell id="1" parent="0" />
      </root>
    </mxGraphModel>
  </diagram>
</mxfile>
